<!-- filepath: c:\souce\next-wp-portfolio\public\images\instaicon.svg -->
<svg
  width="32"
  height="32"
  fill="currentColor"
  viewBox="0 0 24 24"
  xmlns="http://www.w3.org/2000/svg"
>
  <path d="M7.75 2A5.75 5.75 0 0 0 2 7.75v8.5A5.75 5.75 0 0 0 7.75 22h8.5A5.75 5.75 0 0 0 22 16.25v-8.5A5.75 5.75 0 0 0 16.25 2h-8.5zm0 1.5h8.5A4.25 4.25 0 0 1 20.5 7.75v8.5A4.25 4.25 0 0 1 16.25 20.5h-8.5A4.25 4.25 0 0 1 3.5 16.25v-8.5A4.25 4.25 0 0 1 7.75 3.5zm4.25 3.25a5.25 5.25 0 1 0 0 10.5 5.25 5.25 0 0 0 0-10.5zm0 1.5a3.75 3.75 0 1 1 0 7.5 3.75 3.75 0 0 1 0-7.5zm5.25 1.25a1 1 0 1 1-2 0 1 1 0 0 1 2 0z"/>
</svg>